<?xml version="1.0" encoding="utf-8"?>
<!-- Generator: Adobe Illustrator 26.3.0, SVG Export Plug-In . SVG Version: 6.00 Build 0)  -->
<svg version="1.1" id="Warstwa_1" xmlns="http://www.w3.org/2000/svg" xmlns:xlink="http://www.w3.org/1999/xlink" x="0px" y="0px"
	 viewBox="0 0 565.3 800" style="enable-background:new 0 0 565.3 800;" xml:space="preserve">
<style type="text/css">
	.st0{fill:#264DE4;}
	.st1{fill:#2965F1;}
	.st2{fill:#EBEBEB;}
	.st3{fill:#FFFFFF;}
</style>
<g>
	<path class="st0" d="M282.3,798L51.4,733.9L0,156.8h565.3l-51.5,577L282.3,798L282.3,798z"/>
	<path class="st1" d="M469.7,697.1l44-493.1H282.7v544.9L469.7,697.1L469.7,697.1z"/>
	<path class="st2" d="M117.9,418l6.3,70.8h158.4V418H117.9L117.9,418z"/>
	<path class="st2" d="M105.2,274.8l6.4,70.8h171v-70.8H105.2L105.2,274.8z"/>
	<path class="st2" d="M282.7,601.8l-0.3,0.1l-78.8-21.3l-5-56.4h-71l9.9,111.1l145,40.2l0.3-0.1V601.8L282.7,601.8z"/>
	<path d="M133,0h85.7v35.8h-49.9v35.8h49.9v35.8H133V0L133,0z"/>
	<path d="M235.9,0h85.7v31.2h-49.9v6.2h49.9v71.7h-85.7V76.4h49.9v-6.2h-49.9V0L235.9,0z"/>
	<path d="M338.8,0h85.7v31.2h-49.9v6.2h49.9v71.7h-85.7V76.4h49.9v-6.2h-49.9V0L338.8,0z"/>
	<path class="st3" d="M446.9,418l12.8-143.2H282.4v70.8h99.7l-6.4,72.5h-93.3v70.8h87.2l-8.2,91.8l-78.9,21.3v73.6l145.1-40.2
		l1.1-12L445.2,437L446.9,418L446.9,418z"/>
</g>
</svg>
