<?xml version="1.0" encoding="utf-8"?>
<!-- Generator: Adobe Illustrator 26.3.0, SVG Export Plug-In . SVG Version: 6.00 Build 0)  -->
<svg version="1.1" id="Warstwa_1" xmlns="http://www.w3.org/2000/svg" xmlns:xlink="http://www.w3.org/1999/xlink" x="0px" y="0px"
	 viewBox="0 0 565.3 800" style="enable-background:new 0 0 565.3 800;" xml:space="preserve">
<style type="text/css">
	.st0{fill:#E44D26;}
	.st1{fill:#F16529;}
	.st2{fill:#EBEBEB;}
	.st3{fill:#FFFFFF;}
</style>
<path class="st0" d="M565.3,156.8l-51.5,577L282.3,798L51.5,733.9L0,156.8H565.3L565.3,156.8z"/>
<path class="st1" d="M282.7,748.9l187.1-51.9l44-493.1H282.7V748.9z"/>
<path class="st2" d="M182.5,345.6h100.1v-70.8H105.2l1.7,19l17.4,195h158.4V418H189L182.5,345.6z M198.5,524.2h-71l9.9,111.1
	l145,40.2l0.3-0.1v-73.6l-0.3,0.1l-78.8-21.3L198.5,524.2L198.5,524.2z"/>
<path d="M52.6,0h36v35.5h32.9V0h36v107.6h-36v-36H88.6v36h-36L52.6,0L52.6,0z M204.7,35.7h-31.7V0h99.3v35.7h-31.7v71.9h-36
	L204.7,35.7L204.7,35.7L204.7,35.7z M288.1,0h37.5l23.1,37.8l23-37.8h37.5v107.6h-35.8V54.3l-24.7,38.3h-0.6l-24.8-38.3v53.3h-35.2
	V0z M427.2,0h36v72h50.6v35.6h-86.6L427.2,0L427.2,0z"/>
<path class="st3" d="M282.4,488.8h87.2l-8.2,91.8l-78.9,21.3v73.6l145.1-40.2l1.1-12L445.2,437l1.7-19H282.4V488.8L282.4,488.8z
	 M282.4,345.4v0.2h171l1.4-15.9l3.2-35.9l1.7-19H282.4V345.4L282.4,345.4z"/>
</svg>
