<?xml version="1.0" encoding="utf-8"?>
<!-- Generator: Adobe Illustrator 26.3.0, SVG Export Plug-In . SVG Version: 6.00 Build 0)  -->
<svg version="1.1" id="Layer_1" xmlns="http://www.w3.org/2000/svg" xmlns:xlink="http://www.w3.org/1999/xlink" x="0px" y="0px"
	 viewBox="0 0 425 425.2" style="enable-background:new 0 0 425 425.2;" xml:space="preserve">
<style type="text/css">
	.st0{fill:#49021F;}
	.st1{fill:#FF3366;}
</style>
<g id="InDesign" transform="translate(2511 308)">
	<path id="_18" class="st0" d="M-2444.7-308h292.3c36.7,0,66.4,29.7,66.4,66.4V50.8c0,36.7-29.7,66.4-66.4,66.4h-292.3
		c-36.7,0-66.4-29.7-66.4-66.4v-292.3C-2511.1-278.3-2481.4-308-2444.7-308z"/>
	<path id="_34" class="st1" d="M-2360.1-182.2V-6.1c0,1.9-0.8,2.8-2.5,2.8h-32.1c-1.5,0-2.2-0.9-2.2-2.8v-176.1
		c0-1.5,0.8-2.2,2.5-2.2h32.1c1.1-0.1,2.1,0.6,2.2,1.7C-2360-182.6-2360-182.4-2360.1-182.2L-2360.1-182.2z"/>
	<path id="_35" class="st1" d="M-2255.7,0.5c-12.9,0.2-25.7-2.5-37.5-7.9c-11-5.1-20.1-13.3-26.3-23.7c-6.8-12.1-10.1-25.9-9.6-39.8
		c-0.1-12.9,3.2-25.6,9.6-36.8c6.6-11.4,16.2-20.8,27.8-27c13.6-7.1,28.8-10.6,44.1-10.1c0.9,0,2.2,0,3.7,0.1s4.8,0.2,6.8,0.4v-53.1
		c0-1.3,0.6-2,1.7-2h32.6c0.8-0.1,1.6,0.5,1.7,1.3c0,0.1,0,0.3,0,0.4v163.9c0,3.2,0.1,6.7,0.4,10.4c0.3,3.7,0.5,7.1,0.7,10.1
		c0.1,1.2-0.6,2.3-1.7,2.8c-8.7,3.8-17.8,6.6-27.1,8.4C-2237.7-0.4-2246.7,0.4-2255.7,0.5z M-2237.1-34.4v-76.7
		c-2-0.4-4.1-0.7-6.1-0.8c-1.9-0.2-3.8-0.3-5.8-0.3c-6.8-0.1-13.6,1.5-19.7,4.5c-13.4,6.4-21.5,20.3-20.5,35.1
		c-0.1,6.1,0.9,12.2,2.9,18c1.7,4.6,4.4,8.9,7.9,12.4c3.3,3.2,7.4,5.6,11.8,7c4.7,1.5,9.6,2.3,14.5,2.2c2.6,0,5.1-0.1,7.3-0.3
		C-2242.2-33.4-2239.6-33.8-2237.1-34.4L-2237.1-34.4z"/>
</g>
</svg>
