<?xml version="1.0" encoding="utf-8"?>
<!-- Generator: Adobe Illustrator 26.3.0, SVG Export Plug-In . SVG Version: 6.00 Build 0)  -->
<svg version="1.1" id="Layer_1" xmlns="http://www.w3.org/2000/svg" xmlns:xlink="http://www.w3.org/1999/xlink" x="0px" y="0px"
	 viewBox="0 0 500 487.5" style="enable-background:new 0 0 500 487.5;" xml:space="preserve">
<style type="text/css">
	.st0{fill:#001E36;}
	.st1{fill:#31A8FF;}
</style>
<g id="Layer_2_1_">
	<g id="Surfaces">
		<g id="Photo_Surface">
			<g id="Outline_no_shadow">
				<path class="st0" d="M88.5,0h322.9C460.4,0,500,39.6,500,88.5V399c0,48.9-39.6,88.5-88.5,88.5H88.5C39.6,487.5,0,447.9,0,399
					V88.5C0,39.6,39.6,0,88.5,0z"/>
			</g>
		</g>
	</g>
	<g id="Outlined_Mnemonics_Logos">
		<g id="Ps">
			<path class="st1" d="M112.5,341.8V127.5c0-1.4,0.6-2.2,2.1-2.2c3.5,0,6.8,0,11.6-0.2c5.1-0.2,10.2-0.2,15.9-0.5
				c5.6-0.2,11.6-0.2,18.1-0.5c6.5-0.2,12.7-0.2,18.9-0.2c17.1,0,31.3,2.1,42.9,6.5c10.5,3.5,20,9.4,27.9,17.1
				c6.7,6.7,11.9,14.8,15.2,23.8c3.2,8.7,4.8,17.8,4.8,27c0,17.9-4.1,32.7-12.5,44.3c-8.3,11.6-20,20.5-33.5,25.4
				c-14.1,5.2-29.8,7.1-46.9,7.1c-5.1,0-8.3,0-10.5-0.2c-2.1-0.2-5.1-0.2-8.9-0.2v66.9c0.2,1.4-0.8,2.7-2.2,2.9c-0.2,0-0.5,0-0.8,0
				H115C113.4,344.5,112.5,343.7,112.5,341.8z M157.9,165.5v70c2.9,0.2,5.6,0.5,8.1,0.5h11.1c8.1,0,16.2-1.3,24-3.8
				c6.7-1.9,12.5-5.9,17.1-11.1c4.4-5.2,6.5-12.3,6.5-21.4c0.2-6.5-1.4-12.9-4.8-18.6c-3.5-5.4-8.6-9.5-14.6-11.9
				c-7.8-3.2-16-4.4-24.6-4.1c-5.4,0-10.2,0-14.1,0.2C162.3,165,159.3,165.2,157.9,165.5L157.9,165.5z"/>
			<path class="st1" d="M400,222.7c-6.2-3.3-12.9-5.6-20-7.1c-7.8-1.6-15.4-2.7-23.3-2.7c-4.1-0.2-8.6,0.5-12.5,1.4
				c-2.7,0.6-5.1,2.1-6.5,4.1c-1.1,1.6-1.6,3.8-1.6,5.6s0.8,3.8,2.1,5.4c1.9,2.2,4.4,4.1,7.1,5.6c4.8,2.5,9.8,4.8,14.8,6.8
				c11.3,3.8,22.1,8.9,32.1,15.2c6.8,4.4,12.5,10.2,16.5,17.3c3.3,6.7,5.1,14,4.8,21.4c0.2,9.8-2.7,19.6-8.1,27.8
				c-5.9,8.3-14,14.8-23.3,18.6c-10.2,4.4-22.7,6.7-37.7,6.7c-9.5,0-18.9-0.8-28.3-2.7c-7.3-1.3-14.6-3.5-21.3-6.7
				c-1.4-0.8-2.5-2.2-2.2-4v-36.2c0-0.6,0.2-1.4,0.8-1.9s1.3-0.2,1.9,0.2c8.1,4.8,16.7,8.1,25.9,10.2c7.9,2.1,16.2,3.2,24.6,3.2
				c7.9,0,13.5-1.1,17.3-2.9c3.3-1.4,5.6-5.1,5.6-8.7c0-2.9-1.6-5.6-5.1-8.3c-3.3-2.7-10.2-5.9-20.5-9.8
				c-10.6-3.8-20.5-8.7-29.6-15.1c-6.5-4.6-11.9-10.6-15.9-17.8c-3.3-6.7-5.1-14-4.8-21.3c0-8.9,2.5-17.5,7.1-25.2
				c5.2-8.3,12.9-15.1,21.9-19.2c9.8-5.1,22.1-7.3,36.9-7.3c8.6,0,17.3,0.6,25.9,1.9c6.2,0.8,12.3,2.5,17.9,4.8
				c0.8,0.2,1.6,1.1,2.1,1.9c0.2,0.8,0.5,1.6,0.5,2.5v34c0,0.8-0.5,1.6-1.1,2.1C401.9,223.2,400.9,223.2,400,222.7z"/>
		</g>
	</g>
</g>
</svg>
